<svg xmlns="http://www.w3.org/2000/svg" xmlns:xlink="http://www.w3.org/1999/xlink" width="500" zoomAndPan="magnify" viewBox="0 0 375 374.999991" height="500" preserveAspectRatio="xMidYMid meet" version="1.2"><defs/><g id="d88cf18d12"><g style="fill:#000000;fill-opacity:1;"><g transform="translate(54.700394, 197.304065)"><path style="stroke:none" d="M 18.140625 -6.1875 C 19.179688 -6.1875 20.191406 -6.34375 21.171875 -6.65625 C 22.160156 -6.96875 22.882812 -7.269531 23.34375 -7.5625 L 24.03125 -8.03125 L 26.9375 -2.21875 C 26.84375 -2.144531 26.707031 -2.046875 26.53125 -1.921875 C 26.363281 -1.804688 25.972656 -1.582031 25.359375 -1.25 C 24.742188 -0.925781 24.082031 -0.640625 23.375 -0.390625 C 22.675781 -0.148438 21.753906 0.0625 20.609375 0.25 C 19.472656 0.445312 18.300781 0.546875 17.09375 0.546875 C 14.300781 0.546875 11.65625 -0.132812 9.15625 -1.5 C 6.664062 -2.875 4.65625 -4.757812 3.125 -7.15625 C 1.601562 -9.5625 0.84375 -12.15625 0.84375 -14.9375 C 0.84375 -17.050781 1.289062 -19.078125 2.1875 -21.015625 C 3.082031 -22.953125 4.273438 -24.609375 5.765625 -25.984375 C 7.253906 -27.367188 8.992188 -28.472656 10.984375 -29.296875 C 12.972656 -30.128906 15.007812 -30.546875 17.09375 -30.546875 C 19.03125 -30.546875 20.816406 -30.3125 22.453125 -29.84375 C 24.085938 -29.382812 25.242188 -28.925781 25.921875 -28.46875 L 26.9375 -27.78125 L 24.03125 -21.96875 C 23.863281 -22.101562 23.609375 -22.273438 23.265625 -22.484375 C 22.929688 -22.691406 22.253906 -22.960938 21.234375 -23.296875 C 20.210938 -23.640625 19.179688 -23.8125 18.140625 -23.8125 C 16.492188 -23.8125 15.015625 -23.546875 13.703125 -23.015625 C 12.398438 -22.484375 11.363281 -21.78125 10.59375 -20.90625 C 9.832031 -20.03125 9.25 -19.085938 8.84375 -18.078125 C 8.445312 -17.078125 8.25 -16.054688 8.25 -15.015625 C 8.25 -12.734375 9.101562 -10.691406 10.8125 -8.890625 C 12.519531 -7.085938 14.960938 -6.1875 18.140625 -6.1875 Z M 18.140625 -6.1875 "/></g></g><g style="fill:#000000;fill-opacity:1;"><g transform="translate(82.081975, 197.304065)"><path style="stroke:none" d="M 3.9375 -2.21875 C 1.875 -4.0625 0.84375 -6.425781 0.84375 -9.3125 C 0.84375 -12.195312 1.921875 -14.566406 4.078125 -16.421875 C 6.234375 -18.273438 8.898438 -19.203125 12.078125 -19.203125 C 15.203125 -19.203125 17.835938 -18.265625 19.984375 -16.390625 C 22.128906 -14.523438 23.203125 -12.160156 23.203125 -9.296875 C 23.203125 -6.441406 22.148438 -4.085938 20.046875 -2.234375 C 17.953125 -0.378906 15.296875 0.546875 12.078125 0.546875 C 8.722656 0.546875 6.007812 -0.375 3.9375 -2.21875 Z M 8.921875 -12.46875 C 8.085938 -11.644531 7.671875 -10.585938 7.671875 -9.296875 C 7.671875 -8.015625 8.070312 -6.96875 8.875 -6.15625 C 9.675781 -5.34375 10.726562 -4.9375 12.03125 -4.9375 C 13.289062 -4.9375 14.328125 -5.347656 15.140625 -6.171875 C 15.953125 -7.003906 16.359375 -8.050781 16.359375 -9.3125 C 16.359375 -10.59375 15.941406 -11.644531 15.109375 -12.46875 C 14.273438 -13.289062 13.25 -13.703125 12.03125 -13.703125 C 10.800781 -13.703125 9.765625 -13.289062 8.921875 -12.46875 Z M 8.921875 -12.46875 "/></g></g><g style="fill:#000000;fill-opacity:1;"><g transform="translate(106.118137, 197.304065)"><path style="stroke:none" d="M 3.453125 -2.296875 C 1.710938 -4.203125 0.84375 -6.535156 0.84375 -9.296875 C 0.84375 -12.066406 1.710938 -14.410156 3.453125 -16.328125 C 5.203125 -18.242188 7.421875 -19.203125 10.109375 -19.203125 C 12.578125 -19.203125 14.613281 -18.425781 16.21875 -16.875 L 16.21875 -31.265625 L 22.65625 -31.265625 L 22.65625 0 L 16.28125 0 L 16.28125 -2.109375 L 16.21875 -2.109375 C 14.613281 -0.335938 12.578125 0.546875 10.109375 0.546875 C 7.421875 0.546875 5.203125 -0.398438 3.453125 -2.296875 Z M 8.921875 -12.46875 C 8.085938 -11.644531 7.671875 -10.585938 7.671875 -9.296875 C 7.671875 -8.015625 8.070312 -6.96875 8.875 -6.15625 C 9.675781 -5.34375 10.726562 -4.9375 12.03125 -4.9375 C 13.289062 -4.9375 14.328125 -5.347656 15.140625 -6.171875 C 15.953125 -7.003906 16.359375 -8.050781 16.359375 -9.3125 C 16.359375 -10.59375 15.941406 -11.644531 15.109375 -12.46875 C 14.273438 -13.289062 13.25 -13.703125 12.03125 -13.703125 C 10.800781 -13.703125 9.765625 -13.289062 8.921875 -12.46875 Z M 8.921875 -12.46875 "/></g></g><g style="fill:#000000;fill-opacity:1;"><g transform="translate(130.954287, 197.304065)"><path style="stroke:none" d="M 21.046875 -8.4375 L 7.53125 -8.4375 C 7.53125 -7.125 7.953125 -6.148438 8.796875 -5.515625 C 9.648438 -4.890625 10.570312 -4.578125 11.5625 -4.578125 C 12.601562 -4.578125 13.425781 -4.71875 14.03125 -5 C 14.632812 -5.28125 15.328125 -5.832031 16.109375 -6.65625 L 20.765625 -4.328125 C 18.828125 -1.078125 15.601562 0.546875 11.09375 0.546875 C 8.28125 0.546875 5.867188 -0.414062 3.859375 -2.34375 C 1.847656 -4.269531 0.84375 -6.585938 0.84375 -9.296875 C 0.84375 -12.015625 1.847656 -14.34375 3.859375 -16.28125 C 5.867188 -18.226562 8.28125 -19.203125 11.09375 -19.203125 C 14.050781 -19.203125 16.457031 -18.347656 18.3125 -16.640625 C 20.164062 -14.929688 21.09375 -12.488281 21.09375 -9.3125 C 21.09375 -8.875 21.078125 -8.582031 21.046875 -8.4375 Z M 7.703125 -12 L 14.796875 -12 C 14.648438 -12.96875 14.265625 -13.710938 13.640625 -14.234375 C 13.023438 -14.753906 12.234375 -15.015625 11.265625 -15.015625 C 10.203125 -15.015625 9.351562 -14.734375 8.71875 -14.171875 C 8.09375 -13.617188 7.753906 -12.894531 7.703125 -12 Z M 7.703125 -12 "/></g></g><g style="fill:#000000;fill-opacity:1;"><g transform="translate(152.881374, 197.304065)"><path style="stroke:none" d=""/></g></g><g style="fill:#000000;fill-opacity:1;"><g transform="translate(162.808566, 197.304065)"><path style="stroke:none" d="M 18.140625 -6.1875 C 19.179688 -6.1875 20.191406 -6.34375 21.171875 -6.65625 C 22.160156 -6.96875 22.882812 -7.269531 23.34375 -7.5625 L 24.03125 -8.03125 L 26.9375 -2.21875 C 26.84375 -2.144531 26.707031 -2.046875 26.53125 -1.921875 C 26.363281 -1.804688 25.972656 -1.582031 25.359375 -1.25 C 24.742188 -0.925781 24.082031 -0.640625 23.375 -0.390625 C 22.675781 -0.148438 21.753906 0.0625 20.609375 0.25 C 19.472656 0.445312 18.300781 0.546875 17.09375 0.546875 C 14.300781 0.546875 11.65625 -0.132812 9.15625 -1.5 C 6.664062 -2.875 4.65625 -4.757812 3.125 -7.15625 C 1.601562 -9.5625 0.84375 -12.15625 0.84375 -14.9375 C 0.84375 -17.050781 1.289062 -19.078125 2.1875 -21.015625 C 3.082031 -22.953125 4.273438 -24.609375 5.765625 -25.984375 C 7.253906 -27.367188 8.992188 -28.472656 10.984375 -29.296875 C 12.972656 -30.128906 15.007812 -30.546875 17.09375 -30.546875 C 19.03125 -30.546875 20.816406 -30.3125 22.453125 -29.84375 C 24.085938 -29.382812 25.242188 -28.925781 25.921875 -28.46875 L 26.9375 -27.78125 L 24.03125 -21.96875 C 23.863281 -22.101562 23.609375 -22.273438 23.265625 -22.484375 C 22.929688 -22.691406 22.253906 -22.960938 21.234375 -23.296875 C 20.210938 -23.640625 19.179688 -23.8125 18.140625 -23.8125 C 16.492188 -23.8125 15.015625 -23.546875 13.703125 -23.015625 C 12.398438 -22.484375 11.363281 -21.78125 10.59375 -20.90625 C 9.832031 -20.03125 9.25 -19.085938 8.84375 -18.078125 C 8.445312 -17.078125 8.25 -16.054688 8.25 -15.015625 C 8.25 -12.734375 9.101562 -10.691406 10.8125 -8.890625 C 12.519531 -7.085938 14.960938 -6.1875 18.140625 -6.1875 Z M 18.140625 -6.1875 "/></g></g><g style="fill:#000000;fill-opacity:1;"><g transform="translate(190.190147, 197.304065)"><path style="stroke:none" d="M 3.453125 -2.296875 C 1.710938 -4.203125 0.84375 -6.535156 0.84375 -9.296875 C 0.84375 -12.066406 1.710938 -14.410156 3.453125 -16.328125 C 5.203125 -18.242188 7.421875 -19.203125 10.109375 -19.203125 C 12.578125 -19.203125 14.613281 -18.425781 16.21875 -16.875 L 16.21875 -18.65625 L 22.65625 -18.65625 L 22.65625 0 L 16.28125 0 L 16.28125 -2.109375 L 16.21875 -2.109375 C 14.613281 -0.335938 12.578125 0.546875 10.109375 0.546875 C 7.421875 0.546875 5.203125 -0.398438 3.453125 -2.296875 Z M 8.921875 -12.46875 C 8.085938 -11.644531 7.671875 -10.585938 7.671875 -9.296875 C 7.671875 -8.015625 8.070312 -6.96875 8.875 -6.15625 C 9.675781 -5.34375 10.726562 -4.9375 12.03125 -4.9375 C 13.289062 -4.9375 14.328125 -5.347656 15.140625 -6.171875 C 15.953125 -7.003906 16.359375 -8.050781 16.359375 -9.3125 C 16.359375 -10.59375 15.941406 -11.644531 15.109375 -12.46875 C 14.273438 -13.289062 13.25 -13.703125 12.03125 -13.703125 C 10.800781 -13.703125 9.765625 -13.289062 8.921875 -12.46875 Z M 8.921875 -12.46875 "/></g></g><g style="fill:#000000;fill-opacity:1;"><g transform="translate(215.026298, 197.304065)"><path style="stroke:none" d="M 3.265625 -18.65625 L 3.265625 -25.59375 L 9.703125 -25.59375 L 9.703125 -18.65625 L 13.640625 -18.65625 L 13.640625 -13.75 L 9.703125 -13.75 L 9.703125 -7.8125 C 9.703125 -6.09375 10.1875 -5.234375 11.15625 -5.234375 C 11.40625 -5.234375 11.660156 -5.28125 11.921875 -5.375 C 12.191406 -5.476562 12.398438 -5.578125 12.546875 -5.671875 L 12.765625 -5.8125 L 14.359375 -0.625 C 12.984375 0.15625 11.410156 0.546875 9.640625 0.546875 C 8.421875 0.546875 7.375 0.332031 6.5 -0.09375 C 5.632812 -0.519531 4.976562 -1.085938 4.53125 -1.796875 C 4.082031 -2.515625 3.757812 -3.265625 3.5625 -4.046875 C 3.363281 -4.835938 3.265625 -5.679688 3.265625 -6.578125 L 3.265625 -13.75 L 0.578125 -13.75 L 0.578125 -18.65625 Z M 3.265625 -18.65625 "/></g></g><g style="fill:#000000;fill-opacity:1;"><g transform="translate(229.389816, 197.304065)"><path style="stroke:none" d="M 3.453125 -2.296875 C 1.710938 -4.203125 0.84375 -6.535156 0.84375 -9.296875 C 0.84375 -12.066406 1.710938 -14.410156 3.453125 -16.328125 C 5.203125 -18.242188 7.421875 -19.203125 10.109375 -19.203125 C 12.578125 -19.203125 14.613281 -18.425781 16.21875 -16.875 L 16.21875 -18.65625 L 22.65625 -18.65625 L 22.65625 0 L 16.28125 0 L 16.28125 -2.109375 L 16.21875 -2.109375 C 14.613281 -0.335938 12.578125 0.546875 10.109375 0.546875 C 7.421875 0.546875 5.203125 -0.398438 3.453125 -2.296875 Z M 8.921875 -12.46875 C 8.085938 -11.644531 7.671875 -10.585938 7.671875 -9.296875 C 7.671875 -8.015625 8.070312 -6.96875 8.875 -6.15625 C 9.675781 -5.34375 10.726562 -4.9375 12.03125 -4.9375 C 13.289062 -4.9375 14.328125 -5.347656 15.140625 -6.171875 C 15.953125 -7.003906 16.359375 -8.050781 16.359375 -9.3125 C 16.359375 -10.59375 15.941406 -11.644531 15.109375 -12.46875 C 14.273438 -13.289062 13.25 -13.703125 12.03125 -13.703125 C 10.800781 -13.703125 9.765625 -13.289062 8.921875 -12.46875 Z M 8.921875 -12.46875 "/></g></g><g style="fill:#000000;fill-opacity:1;"><g transform="translate(254.225966, 197.304065)"><path style="stroke:none" d="M 2.1875 0 L 2.1875 -31.265625 L 8.609375 -31.265625 L 8.609375 0 Z M 2.1875 0 "/></g></g><g style="fill:#000000;fill-opacity:1;"><g transform="translate(265.025872, 197.304065)"><path style="stroke:none" d="M 16.328125 -18.65625 L 23.75 -18.65625 L 9.09375 9.453125 L 1.671875 9.453125 L 8.109375 -2.90625 L -0.734375 -18.65625 L 6.6875 -18.65625 L 11.890625 -9.09375 Z M 16.328125 -18.65625 "/></g></g><g style="fill:#000000;fill-opacity:1;"><g transform="translate(288.043866, 197.304065)"><path style="stroke:none" d="M 10.296875 -19.203125 C 11.359375 -19.203125 12.410156 -19.078125 13.453125 -18.828125 C 14.492188 -18.585938 15.269531 -18.347656 15.78125 -18.109375 L 16.546875 -17.75 L 14.4375 -13.53125 C 12.976562 -14.300781 11.597656 -14.6875 10.296875 -14.6875 C 9.566406 -14.6875 9.050781 -14.609375 8.75 -14.453125 C 8.445312 -14.296875 8.296875 -14 8.296875 -13.5625 C 8.296875 -13.46875 8.304688 -13.367188 8.328125 -13.265625 C 8.347656 -13.171875 8.394531 -13.082031 8.46875 -13 C 8.539062 -12.914062 8.609375 -12.84375 8.671875 -12.78125 C 8.734375 -12.71875 8.835938 -12.648438 8.984375 -12.578125 C 9.128906 -12.503906 9.242188 -12.445312 9.328125 -12.40625 C 9.410156 -12.375 9.546875 -12.320312 9.734375 -12.25 C 9.929688 -12.175781 10.078125 -12.117188 10.171875 -12.078125 C 10.273438 -12.046875 10.441406 -11.992188 10.671875 -11.921875 C 10.898438 -11.847656 11.078125 -11.800781 11.203125 -11.78125 C 11.953125 -11.5625 12.601562 -11.316406 13.15625 -11.046875 C 13.71875 -10.785156 14.304688 -10.421875 14.921875 -9.953125 C 15.546875 -9.492188 16.023438 -8.910156 16.359375 -8.203125 C 16.703125 -7.503906 16.875 -6.707031 16.875 -5.8125 C 16.875 -1.570312 13.925781 0.546875 8.03125 0.546875 C 6.695312 0.546875 5.429688 0.34375 4.234375 -0.0625 C 3.035156 -0.476562 2.171875 -0.894531 1.640625 -1.3125 L 0.84375 -1.96875 L 3.453125 -6.359375 C 3.648438 -6.191406 3.90625 -5.992188 4.21875 -5.765625 C 4.53125 -5.535156 5.097656 -5.21875 5.921875 -4.8125 C 6.742188 -4.414062 7.460938 -4.21875 8.078125 -4.21875 C 9.410156 -4.21875 10.078125 -4.664062 10.078125 -5.5625 C 10.078125 -5.976562 9.90625 -6.300781 9.5625 -6.53125 C 9.21875 -6.757812 8.640625 -7.019531 7.828125 -7.3125 C 7.023438 -7.601562 6.390625 -7.867188 5.921875 -8.109375 C 4.765625 -8.710938 3.84375 -9.394531 3.15625 -10.15625 C 2.476562 -10.925781 2.140625 -11.941406 2.140625 -13.203125 C 2.140625 -15.085938 2.875 -16.554688 4.34375 -17.609375 C 5.8125 -18.671875 7.796875 -19.203125 10.296875 -19.203125 Z M 10.296875 -19.203125 "/></g></g><g style="fill:#000000;fill-opacity:1;"><g transform="translate(305.9346, 197.304065)"><path style="stroke:none" d="M 3.265625 -18.65625 L 3.265625 -25.59375 L 9.703125 -25.59375 L 9.703125 -18.65625 L 13.640625 -18.65625 L 13.640625 -13.75 L 9.703125 -13.75 L 9.703125 -7.8125 C 9.703125 -6.09375 10.1875 -5.234375 11.15625 -5.234375 C 11.40625 -5.234375 11.660156 -5.28125 11.921875 -5.375 C 12.191406 -5.476562 12.398438 -5.578125 12.546875 -5.671875 L 12.765625 -5.8125 L 14.359375 -0.625 C 12.984375 0.15625 11.410156 0.546875 9.640625 0.546875 C 8.421875 0.546875 7.375 0.332031 6.5 -0.09375 C 5.632812 -0.519531 4.976562 -1.085938 4.53125 -1.796875 C 4.082031 -2.515625 3.757812 -3.265625 3.5625 -4.046875 C 3.363281 -4.835938 3.265625 -5.679688 3.265625 -6.578125 L 3.265625 -13.75 L 0.578125 -13.75 L 0.578125 -18.65625 Z M 3.265625 -18.65625 "/></g></g></g></svg>