<svg xmlns="http://www.w3.org/2000/svg" xmlns:xlink="http://www.w3.org/1999/xlink" width="500" zoomAndPan="magnify" viewBox="0 0 375 374.999991" height="500" preserveAspectRatio="xMidYMid meet" version="1.2"><defs><clipPath id="0b0b48825d"><path d="M 107.601562 88.523438 L 267.351562 88.523438 L 267.351562 286.523438 L 107.601562 286.523438 Z M 107.601562 88.523438 "/></clipPath></defs><g id="644eba25ae"><rect x="0" width="375" y="0" height="374.999991" style="fill:#ffffff;fill-opacity:1;stroke:none;"/><rect x="0" width="375" y="0" height="374.999991" style="fill:#ffffff;fill-opacity:1;stroke:none;"/><path style=" stroke:none;fill-rule:nonzero;fill:#000000;fill-opacity:1;" d="M 126.558594 262.730469 C 126.558594 265.375 128.703125 267.523438 131.347656 267.523438 L 245.449219 267.523438 C 248.09375 267.523438 250.242188 265.375 250.242188 262.730469 C 250.242188 260.085938 248.09375 257.941406 245.449219 257.941406 L 131.347656 257.941406 C 128.703125 257.941406 126.558594 260.085938 126.558594 262.730469 Z M 126.558594 262.730469 "/><g clip-rule="nonzero" clip-path="url(#0b0b48825d)"><path style=" stroke:none;fill-rule:nonzero;fill:#000000;fill-opacity:1;" d="M 262.21875 88.550781 L 131.347656 88.550781 C 118.308594 88.550781 107.699219 99.160156 107.699219 112.203125 L 107.699219 262.730469 C 107.699219 262.730469 107.699219 262.734375 107.699219 262.734375 C 107.699219 275.769531 118.308594 286.378906 131.347656 286.378906 L 262.21875 286.378906 C 264.863281 286.378906 267.011719 284.234375 267.011719 281.589844 L 267.011719 93.34375 C 267.011719 90.695312 264.863281 88.550781 262.21875 88.550781 Z M 131.347656 98.132812 L 257.429688 98.132812 L 257.429688 239.078125 L 131.347656 239.078125 C 126.074219 239.078125 121.21875 240.835938 117.28125 243.761719 L 117.28125 112.203125 C 117.28125 104.445312 123.589844 98.132812 131.347656 98.132812 Z M 257.429688 276.796875 L 131.347656 276.796875 C 123.589844 276.796875 117.28125 270.488281 117.28125 262.730469 C 117.28125 254.972656 123.589844 248.660156 131.347656 248.660156 L 257.429688 248.660156 Z M 257.429688 276.796875 "/></g><path style=" stroke:none;fill-rule:nonzero;fill:#000000;fill-opacity:1;" d="M 157.40625 189.53125 C 158.34375 190.46875 159.566406 190.933594 160.792969 190.933594 C 162.019531 190.933594 163.246094 190.46875 164.183594 189.53125 C 166.054688 187.660156 166.054688 184.628906 164.183594 182.757812 L 150.019531 168.59375 L 164.183594 154.433594 C 166.054688 152.5625 166.054688 149.53125 164.183594 147.660156 C 162.3125 145.789062 159.277344 145.789062 157.40625 147.660156 L 139.855469 165.207031 C 138.957031 166.105469 138.453125 167.324219 138.453125 168.597656 C 138.453125 169.871094 138.957031 171.085938 139.855469 171.988281 Z M 157.40625 189.53125 "/><path style=" stroke:none;fill-rule:nonzero;fill:#000000;fill-opacity:1;" d="M 210.53125 189.53125 C 211.46875 190.46875 212.691406 190.933594 213.917969 190.933594 C 215.144531 190.933594 216.371094 190.46875 217.304688 189.53125 L 234.855469 171.984375 C 236.726562 170.113281 236.726562 167.078125 234.855469 165.207031 L 217.304688 147.660156 C 215.433594 145.789062 212.402344 145.789062 210.53125 147.660156 C 208.660156 149.53125 208.660156 152.5625 210.53125 154.433594 L 224.691406 168.59375 L 210.53125 182.757812 C 208.660156 184.628906 208.660156 187.664062 210.53125 189.53125 Z M 210.53125 189.53125 "/><path style=" stroke:none;fill-rule:nonzero;fill:#000000;fill-opacity:1;" d="M 169.503906 210.609375 C 170.113281 210.867188 170.75 210.992188 171.375 210.992188 C 173.238281 210.992188 175.011719 209.898438 175.785156 208.070312 L 207.746094 132.863281 C 208.78125 130.425781 207.648438 127.613281 205.210938 126.582031 C 202.773438 125.546875 199.957031 126.679688 198.925781 129.117188 L 166.964844 204.324219 C 165.933594 206.761719 167.066406 209.574219 169.503906 210.609375 Z M 169.503906 210.609375 "/></g></svg>